# xmcd CD database file
#
# Track frame offsets:
#	150
#	7942
#	22970
#	40120
#	57462
#	70592
#	92462
#	108462
#	123327
#	135975
#	148860
#	164722
#	177825
#	192942
#	204472
#	217300
#	237227
#	252120
#	268030
#	281975
#
# Disc length: 3969 seconds
#
# Revision: 3
# Processed by: cddbd v1.5.1PL0 Copyright (c) Steve Scherf et al.
# Submitted via: CDex 1.51
#
DISCID=260f7f14
DTITLE=Willie Nelson - Revolutions of time...the journey 1975-1993 - CD - Exodus
DYEAR=1995
DGENRE=Country
TTITLE0=Nobody Slides, My Friend
TTITLE1=Little Old Fashioned Karma
TTITLE2=Harbor Lights
TTITLE3=Without A Song
TTITLE4=Good Time Charlie's Got The Blues
TTITLE5=City Of New Orleans
TTITLE6=Who'll Buy My Memories
TTITLE7=Write Your Own Songs
TTITLE8=Forgiving You Was Easy
TTITLE9=Me And Paul
TTITLE10=When I Dream
TTITLE11=My Own Peculiar Way
TTITLE12=Living In The Promiseland
TTITLE13=There Is No Easy Way (But There Is A Way)
TTITLE14=Ole Buttermilk Sky
TTITLE15=A Horse Called Music
TTITLE16=Nothing I Can Do About It Now
TTITLE17=Is The Better Part Over
TTITLE18=Ain't Necessarily So
TTITLE19=Still Is Still Moving To Me
EXTD=Third and last item of the Willie Nelson-Boxset\n        "Revolutions of time... The Jouney 1975-1993" YEAR: 1995
EXTT0=
EXTT1=
EXTT2=
EXTT3=
EXTT4=
EXTT5=
EXTT6=
EXTT7=
EXTT8=
EXTT9=
EXTT10=
EXTT11=
EXTT12=
EXTT13=
EXTT14=
EXTT15=
EXTT16=
EXTT17=
EXTT18=
EXTT19=
PLAYORDER=
